{"glyphs":{"1":{"ha":847,"x_min":122,"x_max":511,"o":"m 442 0 l 442 928 l 439 928 l 154 658 l 122 713 l 442 1014 l 511 1014 l 511 0 l 442 0 z "},"2":{"ha":847,"x_min":100,"x_max":725,"o":"m 410 967 q 265 940 343 967 q 125 867 188 913 l 100 921 q 250 999 164 969 q 417 1028 336 1028 q 638 953 558 1028 q 717 746 717 879 q 608 462 717 611 q 211 63 499 313 l 211 60 l 725 60 l 725 0 l 114 0 l 114 60 q 534 471 422 324 q 646 740 646 618 q 585 908 646 849 q 410 967 524 967 z "},"3":{"ha":847,"x_min":114,"x_max":725,"o":"m 118 1014 l 711 1014 l 711 954 l 343 590 l 343 588 l 401 588 q 642 517 560 588 q 725 310 725 446 q 635 69 725 151 q 371 -14 544 -14 q 114 60 226 -14 l 138 117 q 371 46 247 46 q 656 310 656 46 q 584 477 656 422 q 360 532 513 532 l 253 532 l 253 590 l 619 951 l 619 954 l 118 954 l 118 1014 z "},"4":{"ha":847,"x_min":21,"x_max":781,"o":"m 528 310 l 528 908 l 525 908 l 94 313 l 94 310 l 528 310 m 596 310 l 781 310 l 781 250 l 596 250 l 596 0 l 528 0 l 528 250 l 21 250 l 21 310 l 528 1014 l 596 1014 l 596 310 z "},"5":{"ha":847,"x_min":118,"x_max":733,"o":"m 692 954 l 240 954 l 214 574 l 217 574 q 414 629 304 629 q 650 550 567 629 q 733 326 733 471 q 642 74 733 161 q 378 -14 551 -14 q 118 58 238 -14 l 140 115 q 378 46 256 46 q 591 117 518 46 q 664 326 664 188 q 598 508 664 446 q 406 571 532 571 q 207 504 292 571 l 143 504 l 176 1014 l 692 1014 l 692 954 z "},"6":{"ha":847,"x_min":76,"x_max":775,"o":"m 426 617 q 229 538 311 617 q 147 347 147 458 q 222 126 147 206 q 426 46 297 46 q 631 126 557 46 q 706 347 706 206 q 629 543 706 469 q 426 617 553 617 m 426 -14 q 171 86 265 -14 q 76 364 76 186 q 209 824 76 647 q 574 1028 342 1000 l 585 968 q 303 835 413 946 q 158 538 194 724 l 161 536 q 438 674 258 674 q 683 584 590 674 q 775 347 775 494 q 681 84 775 182 q 426 -14 586 -14 z "},"7":{"ha":847,"x_min":107,"x_max":746,"o":"m 107 1014 l 746 1014 l 746 954 q 329 0 499 547 l 257 0 q 675 951 428 540 l 675 954 l 107 954 l 107 1014 z "},"8":{"ha":847,"x_min":67,"x_max":781,"o":"m 742 792 q 685 642 742 706 q 526 546 629 578 l 526 543 q 781 268 781 476 q 685 62 781 138 q 424 -14 590 -14 q 162 62 257 -14 q 67 268 67 138 q 131 436 67 367 q 321 539 196 506 l 321 542 q 162 639 218 574 q 106 792 106 704 q 191 963 106 899 q 424 1028 276 1028 q 656 963 571 1028 q 742 792 742 899 m 424 569 q 609 649 542 590 q 676 788 676 707 q 608 920 676 871 q 424 969 540 969 q 240 920 307 969 q 174 788 174 871 q 240 647 174 706 q 424 569 306 589 m 421 511 q 133 271 133 461 q 211 105 133 165 q 424 44 289 44 q 634 106 557 44 q 711 271 711 167 q 421 511 711 463 z "},"9":{"ha":847,"x_min":72,"x_max":771,"o":"m 250 46 q 689 479 613 94 l 686 479 q 410 340 590 340 q 165 431 257 340 q 72 674 72 522 q 167 931 72 835 q 421 1028 261 1028 q 677 929 583 1028 q 771 657 771 831 q 637 190 771 365 q 261 -14 503 15 l 250 46 m 142 674 q 218 472 142 547 q 421 397 294 397 q 618 478 536 397 q 700 674 700 558 q 626 890 700 811 q 421 968 551 968 q 216 890 290 968 q 142 674 142 811 z "}," ":{"ha":393,"x_min":0,"x_max":0,"o":""},"A":{"ha":947,"x_min":53,"x_max":894,"o":"m 53 0 l 432 1014 l 515 1014 l 894 0 l 821 0 l 704 321 l 242 321 l 125 0 l 53 0 m 263 379 l 682 379 l 474 953 l 471 953 l 263 379 z "},"B":{"ha":817,"x_min":122,"x_max":757,"o":"m 350 968 q 192 953 271 968 l 192 579 l 322 579 q 560 631 479 579 q 640 781 640 683 q 350 968 640 968 m 757 292 q 667 72 757 157 q 364 -14 576 -14 q 122 8 229 -14 l 122 1006 q 350 1028 233 1028 q 706 788 706 1028 q 650 640 706 700 q 496 556 594 579 l 496 553 q 690 465 624 532 q 757 292 757 399 m 689 296 q 600 465 689 410 q 322 521 511 521 l 192 521 l 192 61 q 364 46 276 46 q 689 296 689 46 z "},"C":{"ha":960,"x_min":60,"x_max":865,"o":"m 560 968 q 247 843 363 968 q 131 507 131 718 q 249 172 131 297 q 560 46 367 46 q 839 129 711 46 l 865 75 q 556 -14 733 -14 q 195 128 331 -14 q 60 507 60 269 q 194 888 60 747 q 556 1028 328 1028 q 865 939 733 1028 l 839 885 q 560 968 714 968 z "},"D":{"ha":936,"x_min":122,"x_max":876,"o":"m 349 968 q 192 951 275 968 l 192 63 q 349 46 275 46 q 692 167 575 46 q 810 521 810 288 q 692 854 810 740 q 349 968 575 968 m 876 521 q 740 123 876 260 q 349 -14 604 -14 q 122 8 225 -14 l 122 1006 q 349 1028 228 1028 q 740 897 604 1028 q 876 521 876 765 z "},"E":{"ha":804,"x_min":122,"x_max":696,"o":"m 192 954 l 192 579 l 668 579 l 668 521 l 192 521 l 192 60 l 696 60 l 696 0 l 122 0 l 122 1014 l 696 1014 l 696 954 l 192 954 z "},"F":{"ha":783,"x_min":122,"x_max":682,"o":"m 682 954 l 192 954 l 192 565 l 654 565 l 654 507 l 192 507 l 192 0 l 122 0 l 122 1014 l 682 1014 l 682 954 z "},"G":{"ha":1029,"x_min":60,"x_max":921,"o":"m 576 968 q 249 844 368 968 q 131 507 131 721 q 251 170 131 294 q 581 46 372 46 q 854 100 735 46 l 854 521 l 469 521 l 469 579 l 921 579 l 921 61 q 576 -14 769 -14 q 201 128 342 -14 q 60 507 60 269 q 198 886 60 744 q 571 1028 336 1028 q 885 944 750 1028 l 858 892 q 576 968 732 968 z "},"H":{"ha":967,"x_min":122,"x_max":844,"o":"m 192 1014 l 192 579 l 775 579 l 775 1014 l 844 1014 l 844 0 l 775 0 l 775 521 l 192 521 l 192 0 l 122 0 l 122 1014 l 192 1014 z "},"I":{"ha":417,"x_min":171,"x_max":246,"o":"m 171 0 l 171 1014 l 246 1014 l 246 0 l 171 0 z "},"J":{"ha":721,"x_min":39,"x_max":613,"o":"m 613 1014 l 613 379 q 251 -14 613 -14 q 39 32 132 -14 l 57 92 q 251 46 153 46 q 540 389 540 46 l 540 1014 l 613 1014 z "},"K":{"ha":851,"x_min":122,"x_max":799,"o":"m 192 1014 l 192 554 l 194 554 l 696 1014 l 785 1014 l 251 528 l 799 0 l 710 0 l 194 501 l 192 501 l 192 0 l 122 0 l 122 1014 l 192 1014 z "},"L":{"ha":807,"x_min":122,"x_max":719,"o":"m 194 1014 l 194 61 l 719 61 l 719 0 l 122 0 l 122 1014 l 194 1014 z "},"M":{"ha":1181,"x_min":122,"x_max":1058,"o":"m 122 0 l 122 1014 l 201 1014 l 588 389 l 590 389 l 978 1014 l 1058 1014 l 1058 0 l 989 0 l 989 906 l 986 906 l 624 324 l 556 324 l 193 906 l 190 906 l 190 0 l 122 0 z "},"N":{"ha":975,"x_min":122,"x_max":853,"o":"m 122 0 l 122 1014 l 201 1014 l 782 106 l 785 106 l 785 1014 l 853 1014 l 853 0 l 774 0 l 193 908 l 190 908 l 190 0 l 122 0 z "},"O":{"ha":1100,"x_min":60,"x_max":1040,"o":"m 906 129 q 550 -14 771 -14 q 194 129 329 -14 q 60 507 60 272 q 194 885 60 742 q 550 1028 329 1028 q 906 885 771 1028 q 1040 507 1040 742 q 906 129 1040 272 m 246 172 q 550 46 361 46 q 855 172 739 46 q 971 507 971 299 q 855 842 971 715 q 550 968 739 968 q 245 842 361 968 q 129 507 129 715 q 246 172 129 299 z "},"P":{"ha":814,"x_min":122,"x_max":761,"o":"m 122 1006 q 382 1028 247 1028 q 664 949 567 1028 q 761 725 761 871 q 663 490 761 572 q 382 407 565 407 q 192 418 288 407 l 192 0 l 122 0 l 122 1006 m 192 478 q 376 465 279 465 q 611 531 529 465 q 693 719 693 597 q 613 905 693 842 q 376 968 532 968 q 192 953 283 968 l 192 478 z "},"Q":{"ha":1085,"x_min":60,"x_max":1088,"o":"m 856 842 q 550 968 739 968 q 246 842 361 968 q 131 507 131 715 q 246 172 131 299 q 550 46 361 46 q 855 172 739 46 q 971 507 971 299 q 856 842 971 715 m 550 -14 q 194 129 329 -14 q 60 507 60 272 q 194 885 60 742 q 550 1028 329 1028 q 906 885 771 1028 q 1042 507 1042 742 q 958 201 1042 329 q 728 24 874 74 l 728 21 q 1088 -208 968 -28 l 1004 -208 q 824 -60 931 -106 q 550 -14 717 -14 z "},"R":{"ha":842,"x_min":122,"x_max":775,"o":"m 122 0 l 122 1007 q 363 1028 235 1028 q 651 958 554 1028 q 747 754 747 888 q 513 493 747 542 l 513 490 q 577 432 547 474 q 649 294 607 390 l 775 0 l 701 0 l 581 286 q 541 371 557 342 q 507 423 525 400 q 464 453 489 446 q 411 465 439 461 q 331 468 383 468 l 192 468 l 192 0 l 122 0 m 192 526 l 331 526 q 595 582 511 526 q 679 750 679 638 q 358 968 679 968 q 192 954 267 968 l 192 526 z "},"S":{"ha":782,"x_min":88,"x_max":694,"o":"m 390 968 q 224 922 283 968 q 165 792 165 875 q 392 569 165 639 q 624 447 553 521 q 694 257 694 374 q 615 56 694 126 q 386 -14 535 -14 q 88 79 217 -14 l 113 135 q 386 46 232 46 q 564 100 503 46 q 625 257 625 154 q 570 408 625 350 q 386 506 515 465 q 97 792 97 592 q 174 963 97 899 q 390 1028 251 1028 q 675 961 546 1028 l 656 906 q 390 968 539 968 z "},"T":{"ha":906,"x_min":88,"x_max":818,"o":"m 88 1014 l 818 1014 l 818 953 l 488 953 l 488 0 l 418 0 l 418 953 l 88 953 l 88 1014 z "},"U":{"ha":933,"x_min":108,"x_max":825,"o":"m 468 47 q 757 385 757 47 l 757 1014 l 825 1014 l 825 386 q 733 88 825 190 q 467 -14 640 -14 q 201 88 293 -14 q 108 386 108 190 l 108 1014 l 178 1014 l 178 385 q 468 47 178 47 z "},"V":{"ha":947,"x_min":53,"x_max":894,"o":"m 126 1014 l 474 67 l 476 67 l 822 1014 l 894 1014 l 515 0 l 432 0 l 53 1014 l 126 1014 z "},"W":{"ha":1308,"x_min":67,"x_max":1242,"o":"m 138 1014 l 367 71 l 369 71 l 608 1014 l 703 1014 l 940 71 l 943 71 l 1172 1014 l 1242 1014 l 986 0 l 894 0 l 656 943 l 653 943 l 414 0 l 322 0 l 67 1014 l 138 1014 z "},"X":{"ha":883,"x_min":67,"x_max":817,"o":"m 154 1014 l 442 564 l 444 564 l 731 1014 l 810 1014 l 485 513 l 817 0 l 735 0 l 442 461 l 439 461 l 147 0 l 67 0 l 399 513 l 74 1014 l 154 1014 z "},"Y":{"ha":911,"x_min":46,"x_max":865,"o":"m 128 1014 l 456 503 l 458 503 l 785 1014 l 865 1014 l 492 442 l 492 0 l 419 0 l 419 442 l 46 1014 l 128 1014 z "},"Z":{"ha":875,"x_min":108,"x_max":767,"o":"m 108 1014 l 767 1014 l 767 954 l 192 63 l 192 60 l 767 60 l 767 0 l 108 0 l 108 60 l 683 951 l 683 954 l 108 954 l 108 1014 z "},"a":{"ha":747,"x_min":74,"x_max":653,"o":"m 365 736 q 571 674 510 736 q 632 463 632 613 l 632 194 q 653 0 632 97 l 590 0 q 574 143 575 71 l 571 143 q 462 28 533 71 q 299 -14 390 -14 q 135 42 196 -14 q 74 194 74 99 q 182 385 74 317 q 489 454 290 454 l 567 454 l 567 461 q 523 633 567 585 q 365 681 479 681 q 122 617 231 681 l 107 669 q 365 736 224 736 m 138 197 q 184 82 138 125 q 310 39 231 39 q 490 116 414 39 q 567 308 567 193 l 567 401 l 489 401 q 229 347 321 401 q 138 197 138 293 z "},"b":{"ha":789,"x_min":115,"x_max":722,"o":"m 431 -14 q 182 140 253 -14 l 179 140 l 178 0 l 115 0 l 115 1042 l 181 1042 l 181 583 l 183 583 q 431 736 257 736 q 644 638 567 736 q 722 361 722 539 q 644 85 722 183 q 431 -14 565 -14 m 418 681 q 246 598 311 681 q 181 372 181 515 l 181 350 q 247 122 181 203 q 418 42 313 42 q 594 126 529 42 q 658 361 658 210 q 594 597 658 513 q 418 681 529 681 z "},"c":{"ha":715,"x_min":60,"x_max":621,"o":"m 417 679 q 204 595 281 679 q 128 361 128 511 q 208 129 128 217 q 417 42 288 42 q 600 88 513 42 l 621 35 q 414 -14 524 -14 q 158 89 256 -14 q 60 361 60 192 q 154 636 60 536 q 414 736 249 736 q 621 688 524 736 l 600 633 q 417 679 513 679 z "},"d":{"ha":789,"x_min":67,"x_max":674,"o":"m 371 42 q 542 122 476 42 q 608 350 608 203 l 608 372 q 543 598 608 515 q 371 681 478 681 q 195 597 260 681 q 131 361 131 513 q 195 126 131 210 q 371 42 260 42 m 358 736 q 606 583 532 736 l 608 583 l 608 1042 l 674 1042 l 674 0 l 611 0 l 610 140 l 607 140 q 358 -14 536 -14 q 145 85 224 -14 q 67 361 67 183 q 144 638 67 539 q 358 736 222 736 z "},"e":{"ha":757,"x_min":60,"x_max":690,"o":"m 126 338 q 203 119 128 199 q 406 40 279 40 q 622 99 519 40 l 643 47 q 400 -14 531 -14 q 152 87 244 -14 q 60 361 60 188 q 147 636 60 536 q 386 736 235 736 q 610 640 531 736 q 690 368 690 544 q 690 353 690 364 q 689 338 689 342 l 126 338 m 126 393 l 626 393 q 561 607 624 532 q 386 682 499 682 q 199 606 267 682 q 126 393 131 531 z "},"f":{"ha":715,"x_min":81,"x_max":614,"o":"m 81 694 l 281 694 l 281 803 q 333 973 281 918 q 493 1028 385 1028 q 614 1007 556 1028 l 597 953 q 497 972 550 972 q 381 933 415 972 q 346 803 346 894 l 346 694 l 608 694 l 608 639 l 346 639 l 346 0 l 281 0 l 281 639 l 81 639 l 81 694 z "},"g":{"ha":781,"x_min":67,"x_max":672,"o":"m 367 69 q 540 150 471 69 q 608 368 608 231 l 608 382 q 539 599 608 518 q 367 681 469 681 q 193 600 256 681 q 131 375 131 519 q 194 151 131 233 q 367 69 258 69 m 67 375 q 143 642 67 547 q 356 736 219 736 q 607 583 533 736 l 610 583 l 610 722 l 672 722 l 672 51 q 351 -319 672 -319 q 131 -274 232 -319 l 149 -219 q 351 -264 247 -264 q 545 -188 482 -264 q 608 49 608 -112 l 608 164 l 606 164 q 356 14 533 14 q 146 111 225 14 q 67 375 67 208 z "},"h":{"ha":782,"x_min":115,"x_max":681,"o":"m 181 1042 l 181 571 l 183 571 q 290 692 224 647 q 435 736 356 736 q 621 663 561 736 q 681 426 681 589 l 681 0 l 617 0 l 617 421 q 572 621 617 563 q 419 679 528 679 q 254 592 328 679 q 181 385 181 504 l 181 0 l 115 0 l 115 1042 l 181 1042 z "},"i":{"ha":408,"x_min":171,"x_max":238,"o":"m 171 889 l 171 1042 l 238 1042 l 238 889 l 171 889 m 171 0 l 171 722 l 238 722 l 238 0 l 171 0 z "},"j":{"ha":464,"x_min":-31,"x_max":293,"o":"m 293 722 l 293 0 q 227 -253 293 -187 q -28 -319 161 -319 l -31 -262 q 176 -212 126 -262 q 226 -3 226 -162 l 226 722 l 293 722 m 226 889 l 226 1042 l 293 1042 l 293 889 l 226 889 z "},"k":{"ha":757,"x_min":115,"x_max":690,"o":"m 181 1042 l 181 407 l 183 407 l 593 722 l 683 722 l 233 378 l 690 0 l 601 0 l 183 349 l 181 349 l 181 0 l 115 0 l 115 1042 l 181 1042 z "},"l":{"ha":408,"x_min":171,"x_max":238,"o":"m 171 0 l 171 1042 l 238 1042 l 238 0 l 171 0 z "},"m":{"ha":1099,"x_min":108,"x_max":997,"o":"m 171 722 l 172 582 l 175 582 q 260 696 208 656 q 372 736 311 736 q 568 585 522 736 l 571 585 q 658 696 601 656 q 785 736 714 736 q 945 669 893 736 q 997 458 997 603 l 997 0 l 933 0 l 933 444 q 896 627 933 574 q 772 681 858 681 q 640 609 696 681 q 585 431 585 538 l 585 0 l 521 0 l 521 444 q 484 627 521 574 q 361 681 447 681 q 233 597 292 681 q 174 393 174 513 l 174 0 l 108 0 l 108 722 l 171 722 z "},"n":{"ha":775,"x_min":108,"x_max":674,"o":"m 411 679 q 247 592 319 679 q 174 385 174 504 l 174 0 l 108 0 l 108 722 l 171 722 l 172 569 l 175 569 q 280 691 213 646 q 428 736 347 736 q 614 663 554 736 q 674 426 674 589 l 674 0 l 610 0 l 610 421 q 565 621 610 563 q 411 679 519 679 z "},"o":{"ha":786,"x_min":60,"x_max":726,"o":"m 589 596 q 393 681 517 681 q 197 595 269 681 q 125 361 125 510 q 197 127 125 213 q 393 42 269 42 q 589 127 517 42 q 661 361 661 213 q 589 596 661 510 m 636 88 q 393 -14 546 -14 q 150 88 240 -14 q 60 361 60 189 q 150 635 60 533 q 393 736 240 736 q 636 635 546 736 q 726 361 726 533 q 636 88 726 189 z "},"p":{"ha":782,"x_min":108,"x_max":715,"o":"m 424 -14 q 176 136 247 -14 l 174 136 l 174 -306 l 108 -306 l 108 722 l 171 722 l 172 582 l 175 582 q 424 736 246 736 q 638 638 560 736 q 715 361 715 539 q 636 85 715 185 q 424 -14 557 -14 m 411 681 q 239 598 304 681 q 174 372 174 515 l 174 350 q 240 123 174 204 q 411 42 307 42 q 587 126 522 42 q 651 361 651 210 q 587 597 651 513 q 411 681 522 681 z "},"q":{"ha":782,"x_min":67,"x_max":674,"o":"m 371 42 q 542 123 475 42 q 608 350 608 204 l 608 372 q 543 598 608 515 q 371 681 478 681 q 195 597 260 681 q 131 361 131 513 q 195 126 131 210 q 371 42 260 42 m 67 361 q 144 638 67 539 q 358 736 222 736 q 607 582 536 736 l 610 582 l 611 722 l 674 722 l 674 -306 l 608 -306 l 608 136 l 606 136 q 358 -14 535 -14 q 146 85 225 -14 q 67 361 67 185 z "},"r":{"ha":614,"x_min":108,"x_max":533,"o":"m 171 722 l 172 551 l 175 551 q 323 688 231 640 q 533 736 415 736 l 533 679 q 276 592 378 679 q 174 371 174 504 l 174 0 l 108 0 l 108 722 l 171 722 z "},"s":{"ha":679,"x_min":81,"x_max":599,"o":"m 335 736 q 575 681 460 736 l 558 626 q 335 681 450 681 q 195 645 246 681 q 144 549 144 610 q 185 458 144 493 q 339 403 226 424 q 538 326 476 378 q 599 185 599 274 q 528 40 599 93 q 335 -14 458 -14 q 81 56 199 -14 l 99 108 q 335 42 208 42 q 481 80 428 42 q 533 185 533 118 q 487 285 533 249 q 331 343 440 322 q 139 415 197 367 q 81 549 81 464 q 149 685 81 633 q 335 736 217 736 z "},"t":{"ha":700,"x_min":74,"x_max":592,"o":"m 306 958 l 306 694 l 592 694 l 592 639 l 306 639 l 306 213 q 336 75 306 108 q 449 42 367 42 q 567 63 514 42 l 581 10 q 442 -14 514 -14 q 285 34 329 -14 q 240 204 240 82 l 240 639 l 74 639 l 74 694 l 240 694 l 240 958 l 306 958 z "},"u":{"ha":760,"x_min":101,"x_max":651,"o":"m 165 722 l 165 268 q 207 94 165 144 q 349 43 249 43 q 513 130 438 43 q 588 338 588 217 l 588 722 l 651 722 l 651 0 l 589 0 l 589 153 l 586 153 q 481 31 549 76 q 332 -14 413 -14 q 156 51 211 -14 q 101 264 101 117 l 101 722 l 165 722 z "},"v":{"ha":764,"x_min":53,"x_max":711,"o":"m 125 722 l 382 43 l 385 43 l 640 722 l 711 722 l 428 0 l 336 0 l 53 722 l 125 722 z "},"w":{"ha":1119,"x_min":67,"x_max":1053,"o":"m 138 722 l 328 60 l 331 60 l 514 722 l 607 722 l 790 60 l 793 60 l 983 722 l 1053 722 l 835 0 l 744 0 l 561 658 l 558 658 l 375 0 l 285 0 l 67 722 l 138 722 z "},"x":{"ha":753,"x_min":74,"x_max":679,"o":"m 157 722 l 376 413 l 379 413 l 597 722 l 672 722 l 415 367 l 679 0 l 603 0 l 376 321 l 374 321 l 149 0 l 74 0 l 338 367 l 81 722 l 157 722 z "},"y":{"ha":763,"x_min":53,"x_max":710,"o":"m 124 722 l 369 88 l 372 88 l 640 722 l 710 722 l 265 -306 l 196 -306 l 335 10 l 53 722 l 124 722 z "},"z":{"ha":750,"x_min":108,"x_max":642,"o":"m 108 722 l 642 722 l 642 667 l 190 58 l 190 56 l 642 56 l 642 0 l 108 0 l 108 56 l 560 664 l 560 667 l 108 667 l 108 722 z "},"さ":{"ha":1389,"x_min":149,"x_max":1243,"o":"m 821 904 q 796 1099 804 997 l 861 1103 q 885 907 871 986 q 1240 921 1124 915 l 1243 861 q 897 847 1133 856 q 1076 425 947 614 l 1021 389 q 835 475 943 443 q 622 507 728 507 q 381 447 467 507 q 296 281 296 388 q 736 11 296 11 q 1058 42 894 11 l 1069 -18 q 736 -49 904 -49 q 529 -29 619 -49 q 383 22 439 -10 q 292 97 328 53 q 243 185 257 140 q 229 282 229 231 q 332 491 229 415 q 621 567 435 567 q 969 483 810 567 l 971 485 q 833 844 879 638 q 149 833 464 833 l 149 893 q 821 904 458 893 z "},"し":{"ha":1389,"x_min":303,"x_max":1231,"o":"m 386 1071 q 372 438 372 689 q 390 209 372 297 q 447 74 407 121 q 540 10 488 26 q 678 -7 593 -7 q 961 110 832 -7 q 1169 440 1090 226 l 1231 417 q 999 55 1144 182 q 678 -72 854 -72 q 385 39 467 -72 q 303 438 303 150 q 318 1072 303 710 l 386 1071 z "},"す":{"ha":1389,"x_min":107,"x_max":1282,"o":"m 851 371 q 765 285 824 317 q 629 254 706 254 q 445 328 519 254 q 371 511 371 403 q 445 694 371 619 q 629 768 519 768 q 831 686 749 768 l 833 688 l 833 875 l 107 875 l 107 933 l 833 933 l 833 1128 l 899 1128 l 899 933 l 1282 933 l 1282 875 l 899 875 l 899 542 q 918 385 918 467 q 813 72 918 182 q 476 -74 708 -37 l 467 -12 q 754 103 656 13 q 856 340 853 194 q 855 354 856 344 q 854 369 854 364 l 851 371 m 494 651 q 436 511 436 593 q 494 372 436 429 q 638 315 553 315 q 781 372 722 315 q 839 511 839 429 q 781 651 839 593 q 638 708 722 708 q 494 651 553 708 z "},"せ":{"ha":1389,"x_min":106,"x_max":1283,"o":"m 336 1072 l 400 1072 l 400 792 q 992 806 731 796 l 992 1111 l 1056 1111 l 1056 808 l 1281 817 l 1283 757 q 1056 747 1208 753 l 1056 506 q 1035 364 1056 396 q 942 332 1014 332 q 796 354 894 332 q 646 399 697 376 l 665 457 q 806 417 715 438 q 933 396 896 396 q 985 410 978 396 q 992 515 992 425 l 992 744 q 400 731 731 735 l 400 278 q 408 163 400 207 q 438 88 417 119 q 501 40 458 56 q 604 19 544 25 q 761 13 664 13 q 1140 40 969 13 l 1147 -21 q 761 -49 981 -49 q 545 -36 624 -49 q 417 15 467 -24 q 352 113 368 53 q 336 278 336 172 l 336 731 q 106 729 258 729 l 106 789 q 336 790 258 789 l 336 1072 z "},"そ":{"ha":1389,"x_min":104,"x_max":1257,"o":"m 326 1035 l 1053 1035 l 1053 976 q 400 597 686 697 l 401 594 l 1253 657 l 1257 597 l 932 574 q 637 415 739 508 q 535 214 535 322 q 926 1 535 1 q 1118 17 1031 1 l 1126 -44 q 926 -60 1046 -60 q 700 -37 794 -60 q 556 26 606 -14 q 486 110 507 65 q 465 208 465 154 q 542 402 465 311 q 776 561 619 493 l 776 564 l 108 514 l 104 574 q 943 972 450 599 l 943 975 l 326 975 l 326 1035 z "},"た":{"ha":1389,"x_min":119,"x_max":1244,"o":"m 1215 614 q 669 574 947 614 l 664 635 q 1215 674 935 674 l 1215 614 m 1236 53 l 1244 -7 q 951 -35 1089 -35 q 672 27 779 -35 q 565 185 565 89 q 729 394 565 285 l 769 351 q 629 189 629 258 q 718 71 629 117 q 951 25 807 25 q 1236 53 1082 25 m 160 868 l 160 928 l 394 928 q 431 1118 415 1031 l 496 1110 q 461 928 476 1000 l 975 928 l 975 868 l 449 868 q 182 -65 344 368 l 119 -49 q 382 868 275 365 l 160 868 z "},"ち":{"ha":1389,"x_min":149,"x_max":1240,"o":"m 149 843 l 149 903 l 483 903 q 524 1104 501 979 l 588 1097 q 549 903 571 989 l 1240 903 l 1240 843 l 533 843 q 390 469 486 668 l 393 468 q 585 540 476 511 q 781 569 694 569 q 1064 496 968 569 q 1160 281 1160 422 q 1026 42 1160 132 q 667 -49 892 -49 q 339 -18 500 -49 l 349 42 q 667 11 519 11 q 977 85 861 11 q 1093 282 1093 158 q 778 510 1093 510 q 553 472 678 510 q 349 378 429 433 l 293 408 q 468 843 413 638 l 149 843 z "},"っ":{"ha":1389,"x_min":240,"x_max":1147,"o":"m 240 658 q 731 746 563 746 q 1147 396 1147 746 q 969 87 1147 193 q 446 -19 790 -19 l 442 43 q 1079 392 1079 43 q 992 610 1079 539 q 725 682 906 682 q 256 597 568 682 l 240 658 z "},"つ":{"ha":1389,"x_min":129,"x_max":1257,"o":"m 129 832 q 739 942 531 942 q 1257 507 1257 942 q 1035 125 1257 257 q 385 -7 813 -7 l 381 58 q 1186 503 1186 58 q 1075 783 1186 692 q 733 875 964 875 q 144 768 538 875 l 129 832 z "},"と":{"ha":1389,"x_min":215,"x_max":1161,"o":"m 372 1076 l 440 1088 q 540 615 479 847 q 1136 807 763 722 l 1150 746 q 285 257 285 546 q 740 14 285 14 q 1154 44 925 14 l 1161 -18 q 740 -49 931 -49 q 350 29 485 -49 q 215 254 215 107 q 478 583 215 440 q 372 1076 413 828 z "},"な":{"ha":1389,"x_min":79,"x_max":1299,"o":"m 1290 824 q 982 850 1149 847 l 982 304 q 1294 101 1121 236 l 1254 54 q 982 236 1106 168 l 982 226 q 917 11 982 74 q 693 -51 851 -51 q 487 8 561 -51 q 413 171 413 67 q 485 326 413 271 q 693 382 558 382 q 917 333 797 382 l 917 913 q 1299 885 1132 913 l 1290 824 m 107 851 l 107 913 l 372 913 q 439 1131 410 1025 l 500 1119 q 438 913 474 1026 l 715 913 l 715 851 l 418 851 q 138 142 304 510 l 79 165 q 353 851 240 518 l 107 851 m 917 269 q 693 322 800 322 q 478 171 478 322 q 534 50 478 93 q 693 7 590 7 q 869 53 822 7 q 917 226 917 100 l 917 269 z "},"に":{"ha":1389,"x_min":174,"x_max":1233,"o":"m 614 868 l 614 929 l 1200 929 l 1200 868 l 614 868 m 310 1053 q 240 500 240 794 q 310 -53 240 206 l 243 -62 q 174 500 174 200 q 243 1063 174 800 l 310 1053 m 1222 108 l 1233 47 q 919 6 1076 6 q 622 73 732 6 q 511 253 511 140 q 560 386 511 313 q 694 524 610 460 l 739 481 q 622 363 665 425 q 579 253 579 300 q 670 117 579 167 q 919 68 761 68 q 1222 108 1065 68 z "},"ぬ":{"ha":1389,"x_min":115,"x_max":1326,"o":"m 276 1051 l 335 1064 q 396 810 358 951 q 722 889 539 889 q 861 876 797 889 q 933 1118 894 978 l 994 1104 q 922 860 958 968 q 1169 692 1079 811 q 1260 410 1260 574 q 1231 190 1260 283 q 1326 79 1272 149 l 1281 43 q 1207 129 1257 74 q 958 -49 1125 -49 q 804 5 865 -49 q 743 142 743 58 q 803 273 743 224 q 961 322 863 322 q 1179 238 1075 322 q 1194 410 1194 314 q 1116 654 1194 551 q 901 800 1038 757 q 613 207 767 410 q 336 4 460 4 q 181 93 247 4 q 115 338 115 182 q 175 588 115 474 q 342 776 235 701 q 276 1051 303 929 m 564 247 q 840 815 713 450 q 722 826 781 826 q 413 747 546 826 q 564 247 472 521 m 519 190 q 358 711 425 464 q 225 548 272 644 q 178 338 178 451 q 226 142 178 214 q 336 69 274 69 q 519 190 417 69 m 1161 175 q 958 264 1065 264 q 845 231 888 264 q 803 142 803 197 q 846 47 803 83 q 958 10 889 10 q 1161 175 1103 10 z "},"ね":{"ha":1389,"x_min":89,"x_max":1315,"o":"m 107 850 l 400 850 l 400 1088 l 463 1088 l 463 675 q 718 883 611 825 q 926 940 825 940 q 1173 819 1089 940 q 1257 458 1257 697 q 1222 211 1257 319 q 1315 97 1254 176 l 1269 58 q 1197 147 1214 128 q 926 -32 1110 -32 q 757 26 824 -32 q 690 176 690 85 q 755 321 690 267 q 926 375 819 375 q 1171 264 1056 375 q 1192 458 1192 357 q 924 876 1192 876 q 724 813 831 876 q 463 585 618 750 l 463 -74 l 400 -74 l 400 515 q 136 194 278 378 l 89 235 q 400 610 278 478 l 400 792 l 107 792 l 107 850 m 1151 199 q 1035 292 1085 268 q 926 315 986 315 q 800 277 847 315 q 753 176 753 239 q 801 69 753 111 q 926 28 850 28 q 1151 199 1086 28 z "},"の":{"ha":1389,"x_min":115,"x_max":1274,"o":"m 838 39 q 1110 178 1011 56 q 1208 500 1208 301 q 1078 812 1208 689 q 750 935 949 935 l 743 935 q 368 17 653 17 q 194 133 274 17 q 115 419 115 250 q 292 836 115 675 q 750 997 469 997 q 1126 857 978 997 q 1274 500 1274 717 q 1159 133 1274 274 q 849 -24 1044 -7 l 838 39 m 676 932 q 317 770 453 910 q 181 419 181 631 q 242 178 181 276 q 368 81 304 81 q 416 94 392 81 q 469 140 440 107 q 527 235 499 172 q 583 389 556 299 q 634 619 610 479 q 676 932 658 758 z "},"は":{"ha":1389,"x_min":143,"x_max":1283,"o":"m 1283 785 l 1029 785 l 1029 297 q 1282 88 1132 232 l 1238 42 q 1029 222 1108 167 l 1029 208 q 965 6 1029 71 q 767 -60 900 -60 q 553 1 629 -60 q 478 174 478 63 q 553 330 478 275 q 767 385 628 385 q 964 335 864 385 l 964 785 l 511 785 l 511 844 l 964 844 l 964 1086 l 1029 1086 l 1029 844 l 1283 844 l 1283 785 m 276 1053 q 208 500 208 800 q 276 -53 208 200 l 214 -62 q 143 500 143 204 q 214 1063 143 796 l 276 1053 m 964 264 q 765 322 863 322 q 543 174 543 322 q 601 44 543 89 q 765 0 658 0 q 917 50 869 0 q 964 211 964 100 l 964 264 z "},"ひ":{"ha":1389,"x_min":136,"x_max":1336,"o":"m 136 983 l 635 983 l 635 922 q 376 673 475 831 q 276 351 276 515 q 369 90 276 179 q 636 0 461 0 q 920 113 815 0 q 1025 419 1025 225 q 881 983 1025 697 l 931 1021 q 1115 816 1001 928 q 1336 622 1228 704 l 1299 574 q 1003 847 1144 690 l 1000 846 q 1090 407 1090 607 q 967 67 1090 193 q 636 -60 844 -60 q 321 47 432 -60 q 210 350 210 153 q 297 662 210 508 q 533 921 385 815 l 532 924 l 136 924 l 136 983 z "},"ふ":{"ha":1389,"x_min":63,"x_max":1328,"o":"m 338 1024 l 1035 1024 l 1035 963 q 747 891 858 960 q 636 736 636 822 q 670 623 636 681 q 788 481 704 565 q 916 322 881 386 q 951 188 951 258 q 863 8 951 78 q 636 -62 775 -62 q 401 -3 507 -62 l 426 54 q 635 0 535 0 q 811 53 742 0 q 881 188 881 106 q 850 301 881 244 q 729 449 819 357 q 603 603 640 539 q 567 732 567 667 q 620 859 567 800 q 775 960 674 918 l 774 963 l 338 963 l 338 1024 m 1051 571 l 1107 600 q 1328 129 1250 383 l 1268 111 q 1051 571 1194 356 m 314 576 q 118 107 250 336 l 63 133 q 253 592 186 346 l 314 576 z "},"へ":{"ha":1389,"x_min":63,"x_max":1325,"o":"m 113 265 l 63 311 q 333 626 225 494 q 474 784 435 751 q 569 817 514 817 q 663 789 622 817 q 826 643 703 761 q 1325 188 1067 414 l 1279 135 q 764 607 1031 353 q 633 724 664 701 q 568 747 603 747 q 503 721 532 747 q 389 590 474 694 q 113 265 215 382 z "},"ほ":{"ha":1389,"x_min":143,"x_max":1283,"o":"m 1282 960 l 1025 960 l 1025 703 l 1282 703 l 1282 643 l 1025 643 l 1025 274 q 1283 63 1131 210 l 1238 18 q 1025 200 1110 142 q 768 -61 1024 -61 q 563 -3 636 -61 q 490 158 490 54 q 502 226 490 194 q 542 288 514 257 q 628 336 571 318 q 768 354 686 354 q 960 310 867 354 l 960 643 l 522 643 l 522 703 l 960 703 l 960 960 l 522 960 l 522 1019 l 1282 1019 l 1282 960 m 276 1053 q 208 500 208 800 q 276 -53 208 200 l 214 -62 q 143 500 143 204 q 214 1063 143 796 l 276 1053 m 960 240 q 765 294 860 294 q 556 158 556 294 q 609 40 556 81 q 764 -1 663 -1 q 913 49 867 -1 q 960 210 960 99 l 960 240 z "},"ま":{"ha":1389,"x_min":174,"x_max":1215,"o":"m 824 1111 l 824 942 l 1215 942 l 1215 882 l 824 882 l 824 664 l 1171 664 l 1171 604 l 824 604 l 824 292 q 1183 36 976 211 l 1142 -11 q 824 222 961 144 q 756 3 822 69 q 542 -62 690 -62 q 332 1 410 -62 q 254 169 254 64 q 267 240 254 207 q 308 306 279 274 q 397 357 338 338 q 542 376 457 376 q 760 322 639 376 l 760 604 l 218 604 l 218 664 l 760 664 l 760 882 l 174 882 l 174 942 l 760 942 l 760 1111 l 824 1111 m 760 257 q 546 317 639 317 q 322 169 322 317 q 381 44 322 90 q 542 -3 440 -3 q 712 50 664 -3 q 760 236 760 103 l 760 257 z "},"み":{"ha":1389,"x_min":104,"x_max":1318,"o":"m 381 -24 q 197 83 289 -24 q 104 308 104 190 q 238 506 104 419 q 590 597 372 592 q 633 961 604 690 l 203 961 l 203 1021 l 700 1021 l 700 961 q 656 596 674 719 q 1013 533 838 589 q 1018 910 1018 635 l 1083 910 q 1075 510 1083 672 q 1318 389 1204 461 l 1288 335 q 1071 444 1178 403 q 1042 230 1061 314 q 984 88 1022 146 q 901 -3 946 31 q 776 -75 856 -36 l 743 -19 q 886 72 839 28 q 965 208 933 115 q 1008 468 997 301 q 647 535 832 528 q 571 182 613 307 q 486 17 529 57 q 381 -24 443 -24 m 581 536 q 283 463 396 531 q 171 308 171 394 q 243 130 171 218 q 381 42 315 42 q 489 149 442 42 q 581 536 536 256 z "},"む":{"ha":1389,"x_min":114,"x_max":1311,"o":"m 132 931 l 444 931 l 444 1114 l 510 1114 l 510 931 l 785 931 l 785 871 l 510 871 l 510 489 q 456 186 510 349 q 433 96 433 119 q 450 42 433 60 q 540 11 467 24 q 764 -1 614 -1 q 981 15 908 -1 q 1074 58 1053 31 q 1094 140 1094 86 q 1029 472 1094 253 l 1092 488 q 1160 131 1160 264 q 1078 -22 1160 18 q 764 -62 997 -62 q 444 -35 525 -62 q 364 74 364 -7 q 389 174 364 104 q 424 283 411 236 l 421 285 q 313 246 375 246 q 170 304 226 246 q 114 496 114 363 q 170 687 114 628 q 313 746 226 746 q 442 672 392 746 l 444 674 l 444 871 l 132 871 l 132 931 m 961 904 l 994 957 q 1311 733 1163 853 l 1275 683 q 961 904 1135 797 m 174 496 q 322 303 174 303 q 417 349 388 303 q 447 496 447 394 q 413 636 447 585 q 322 688 379 688 q 174 496 174 688 z "},"め":{"ha":1389,"x_min":115,"x_max":1274,"o":"m 304 1051 l 365 1064 q 422 824 386 964 q 722 889 560 889 q 876 874 800 889 q 951 1119 926 1025 l 1014 1104 q 939 858 989 1010 q 1185 694 1096 810 q 1274 421 1274 579 q 1155 97 1274 225 q 839 -51 1036 -32 l 826 10 q 1104 138 1000 26 q 1208 421 1208 249 q 1131 656 1208 557 q 918 796 1054 754 q 620 200 776 396 q 336 4 464 4 q 181 94 247 4 q 115 336 115 183 q 181 599 115 481 q 365 792 247 718 q 304 1051 329 929 m 856 811 q 722 824 793 824 q 439 760 563 824 q 593 268 506 517 q 856 811 731 464 m 383 726 q 232 560 286 661 q 178 336 178 458 q 227 140 178 213 q 340 68 276 68 q 549 210 432 68 q 383 726 456 463 z "},"も":{"ha":1389,"x_min":146,"x_max":1236,"o":"m 176 843 l 176 903 l 499 903 q 504 990 500 919 q 511 1100 508 1060 l 579 1097 q 565 903 575 1050 l 1136 903 l 1136 843 l 561 843 q 546 571 557 783 l 1060 571 l 1060 511 l 543 511 q 538 292 538 390 q 592 55 538 110 q 822 0 646 0 q 1082 65 993 0 q 1171 251 1171 129 q 1157 360 1171 300 l 1219 375 q 1236 247 1236 303 q 1129 17 1236 97 q 822 -62 1022 -62 q 542 10 614 -62 q 469 292 469 82 q 476 511 469 361 l 146 511 l 146 571 l 479 571 q 494 843 490 783 l 176 843 z "},"ゃ":{"ha":1389,"x_min":201,"x_max":1174,"o":"m 700 849 l 761 865 q 784 779 765 847 q 813 674 803 711 q 947 693 889 693 q 1112 632 1050 693 q 1174 467 1174 571 q 1108 297 1174 358 q 932 235 1043 235 q 778 254 856 235 l 786 314 q 928 294 868 294 q 1061 340 1013 294 q 1110 464 1110 385 q 1065 589 1110 544 q 940 633 1021 633 q 828 617 896 633 q 868 454 856 506 l 808 439 q 796 488 803 461 q 781 549 789 515 q 768 600 772 582 q 535 519 660 565 q 700 -61 619 240 l 638 -78 q 475 497 563 206 q 224 401 389 465 l 201 457 q 348 513 258 479 q 457 554 438 547 q 382 793 394 756 l 443 813 q 517 576 500 631 q 753 657 640 622 q 700 849 729 750 z "},"や":{"ha":1389,"x_min":82,"x_max":1289,"o":"m 710 1076 l 774 1093 q 839 850 811 961 q 1011 875 938 875 q 1214 800 1139 875 q 1289 597 1289 725 q 1210 390 1289 465 q 993 314 1131 314 q 799 339 894 314 l 808 401 q 989 376 908 376 q 1160 434 1099 376 q 1222 594 1222 492 q 1165 755 1222 697 q 1004 813 1107 813 q 854 790 938 813 q 904 582 876 703 l 843 565 q 819 659 838 586 q 792 772 801 732 q 488 667 675 738 q 696 -64 604 278 l 631 -81 q 425 643 538 274 q 104 522 203 561 l 82 581 q 407 704 168 614 q 311 1007 367 839 l 375 1026 q 469 728 449 796 q 775 832 669 800 q 710 1076 750 932 z "},"ゅ":{"ha":1389,"x_min":250,"x_max":1163,"o":"m 757 736 l 757 881 l 821 881 l 821 738 q 1075 654 988 731 q 1163 436 1163 578 q 1068 215 1163 293 q 800 133 974 136 q 720 -1 776 50 q 563 -86 664 -51 l 536 -32 q 666 37 619 -1 q 733 136 713 75 q 451 307 550 158 l 492 349 q 602 244 535 285 q 749 196 669 204 q 757 319 757 250 l 757 676 q 433 506 558 661 q 308 111 308 350 l 250 111 l 250 760 l 310 760 l 310 397 l 311 397 q 483 637 367 547 q 757 736 599 726 m 821 678 l 821 319 q 813 194 821 250 q 1024 262 951 200 q 1097 436 1097 324 q 1026 610 1097 549 q 821 678 956 672 z "},"ゆ":{"ha":1389,"x_min":143,"x_max":1274,"o":"m 206 963 l 206 471 l 208 471 q 427 799 276 679 q 781 929 578 918 l 781 1114 l 847 1114 l 847 931 q 1165 829 1056 924 q 1274 558 1274 735 q 1156 285 1274 382 q 822 185 1038 188 q 724 17 793 81 q 526 -90 654 -47 l 499 -33 q 667 56 607 6 q 753 188 726 106 q 546 256 642 199 q 392 404 450 314 l 435 447 q 577 312 489 364 q 768 250 665 260 q 781 414 781 321 l 781 867 q 365 654 526 851 q 204 153 204 457 l 143 153 l 143 963 l 206 963 m 836 249 q 1112 334 1017 254 q 1207 558 1207 414 q 1115 782 1207 703 q 847 868 1022 861 l 847 414 q 836 249 847 314 z "},"ょ":{"ha":1389,"x_min":272,"x_max":1121,"o":"m 1110 663 l 1110 604 l 739 604 l 739 285 q 1121 47 903 218 l 1082 0 q 739 221 883 156 l 739 178 q 688 -5 739 54 q 531 -64 638 -64 q 332 -6 392 -64 q 272 138 272 51 q 332 273 272 217 q 531 329 392 329 q 675 307 600 329 l 675 869 l 739 869 l 739 663 l 1110 663 m 675 246 q 531 271 597 271 q 336 138 336 271 q 531 -7 336 -7 q 641 37 607 -7 q 675 178 675 81 l 675 246 z "},"よ":{"ha":1389,"x_min":171,"x_max":1225,"o":"m 1213 775 l 743 775 l 743 357 q 1225 68 943 279 l 1185 17 q 743 290 928 213 l 743 236 q 681 10 743 83 q 489 -62 619 -62 q 244 8 317 -62 q 171 185 171 79 q 251 352 171 294 q 489 410 332 410 q 676 379 579 410 l 676 1100 l 743 1100 l 743 836 l 1213 836 l 1213 775 m 676 315 q 489 349 574 349 q 239 185 239 349 q 489 -3 239 -3 q 632 53 588 -3 q 676 236 676 110 l 676 315 z "},"ら":{"ha":1389,"x_min":235,"x_max":1192,"o":"m 371 807 q 314 440 346 622 l 315 439 q 549 569 410 518 q 808 621 688 621 q 1094 544 996 621 q 1192 319 1192 467 q 592 -49 1192 -49 q 322 -33 472 -49 l 328 28 q 592 11 486 11 q 1118 319 1118 11 q 803 560 1118 560 q 536 501 683 560 q 294 354 389 442 l 235 372 q 304 814 275 599 l 371 807 m 400 1035 q 1001 993 704 993 l 1001 933 q 392 975 703 933 l 400 1035 z "},"り":{"ha":1389,"x_min":290,"x_max":1153,"o":"m 831 1018 q 1069 905 985 1018 q 1153 581 1153 792 q 972 103 1153 257 q 410 -51 792 -51 l 407 11 q 921 148 758 11 q 1083 581 1083 285 q 1017 859 1083 764 q 826 954 951 954 q 521 777 667 954 q 356 349 375 600 l 290 350 l 290 1046 l 357 1046 l 357 603 l 360 603 q 556 904 424 790 q 831 1018 688 1018 z "},"る":{"ha":1389,"x_min":158,"x_max":1210,"o":"m 489 589 l 490 588 q 804 642 669 642 q 1106 565 1003 642 q 1210 344 1210 489 q 1077 51 1210 153 q 692 -51 944 -51 q 307 157 307 -51 q 382 285 307 232 q 599 338 457 338 q 883 149 883 338 q 850 22 883 90 q 1139 338 1139 76 q 1051 522 1139 458 q 789 585 963 585 q 186 396 500 585 l 158 444 l 958 960 l 958 963 l 260 963 l 260 1021 l 1075 1021 l 1082 963 l 489 589 m 781 13 q 822 143 822 92 q 596 281 822 281 q 431 244 489 281 q 374 157 374 207 q 692 8 374 8 q 781 13 739 8 z "},"れ":{"ha":1389,"x_min":78,"x_max":1361,"o":"m 93 850 l 428 850 l 428 1100 l 493 1100 l 493 624 q 949 926 826 926 q 1050 869 1019 926 q 1081 674 1081 811 q 1065 461 1081 599 q 1050 250 1050 324 q 1056 147 1050 188 q 1074 89 1063 107 q 1097 65 1086 71 q 1125 60 1108 60 q 1210 96 1157 60 q 1322 197 1264 132 l 1361 153 q 1231 38 1300 82 q 1113 -7 1161 -7 q 1013 51 1043 -7 q 983 246 983 108 q 997 458 983 333 q 1013 669 1013 593 q 1001 794 1013 750 q 974 849 989 839 q 938 858 960 858 q 493 538 839 858 l 493 -86 l 428 -86 l 428 476 q 122 172 329 385 l 78 217 q 428 564 315 458 l 428 789 l 93 789 l 93 850 z "},"ろ":{"ha":1389,"x_min":156,"x_max":1207,"o":"m 475 569 l 476 567 q 800 628 644 628 q 1113 546 1019 628 q 1207 335 1207 464 q 650 -36 1207 -36 q 394 -21 528 -36 l 397 42 q 647 26 528 26 q 1136 331 1136 26 q 783 569 1136 569 q 494 518 654 569 q 183 376 335 467 l 156 426 l 944 946 l 944 949 l 275 949 l 275 1008 l 1058 1008 l 1065 949 l 475 569 z "},"わ":{"ha":1389,"x_min":101,"x_max":1268,"o":"m 118 850 l 426 850 l 426 1088 l 489 1088 l 489 676 q 734 872 631 818 q 938 926 838 926 q 1268 447 1268 926 q 1165 115 1268 238 q 889 -7 1063 -7 q 682 39 775 -7 l 704 97 q 889 57 793 57 q 1117 162 1032 57 q 1203 447 1203 267 q 935 863 1203 863 q 742 802 844 863 q 489 585 639 742 l 489 -74 l 426 -74 l 426 518 q 149 181 318 399 l 101 221 q 426 611 285 460 l 426 792 l 118 792 l 118 850 z "},"を":{"ha":1389,"x_min":142,"x_max":1165,"o":"m 1150 -21 q 808 -49 988 -49 q 444 9 557 -49 q 331 192 331 67 q 764 528 331 411 q 709 638 744 607 q 618 668 674 668 q 416 585 525 668 q 194 342 307 501 l 142 376 q 431 885 313 617 l 143 885 l 143 942 l 456 942 q 524 1119 503 1058 l 586 1103 q 524 942 539 978 l 1139 942 l 1139 885 l 499 885 q 358 601 440 751 l 360 600 q 628 726 504 726 q 753 683 706 726 q 826 544 801 640 q 1158 603 969 578 l 1165 544 q 839 485 990 521 q 858 188 858 376 l 792 188 q 775 469 792 365 q 399 197 399 365 q 413 126 399 156 q 468 68 428 96 q 594 26 508 40 q 808 11 679 11 q 1143 39 975 11 l 1150 -21 z "},"ん":{"ha":1389,"x_min":119,"x_max":1285,"o":"m 624 1051 q 361 413 471 690 l 364 411 q 618 581 481 581 q 742 505 699 581 q 811 285 785 429 q 869 80 838 146 q 961 14 901 14 q 1225 403 1119 14 l 1285 386 q 960 -46 1169 -46 q 827 32 872 -46 q 751 267 782 110 q 696 460 725 397 q 613 522 667 522 q 401 389 503 522 q 178 -56 299 256 l 119 -33 q 564 1072 324 496 l 624 1051 z "},"ア":{"ha":1389,"x_min":175,"x_max":1258,"o":"m 175 921 l 175 982 l 1258 982 l 1258 921 q 1115 647 1215 765 q 867 463 1014 529 l 833 519 q 1188 921 1107 643 l 175 921 m 608 778 l 676 778 q 587 235 676 424 q 290 -36 497 47 l 261 21 q 528 270 447 96 q 608 778 608 444 z "},"イ":{"ha":1389,"x_min":143,"x_max":1232,"o":"m 143 503 q 731 690 444 546 q 1188 1029 1017 833 l 1232 983 q 811 660 1072 801 l 811 -58 l 740 -58 l 740 624 q 153 440 453 482 l 143 503 z "},"ウ":{"ha":1389,"x_min":185,"x_max":1204,"o":"m 185 885 l 649 885 l 649 1114 l 715 1114 l 715 885 l 1204 885 l 1204 674 q 1003 165 1204 353 q 429 -46 803 -22 l 422 17 q 953 208 769 39 q 1136 674 1136 378 l 1136 822 l 251 822 l 251 465 l 185 465 l 185 885 z "},"エ":{"ha":1389,"x_min":163,"x_max":1226,"o":"m 204 956 l 1185 956 l 1185 893 l 729 893 l 729 107 l 1226 107 l 1226 44 l 163 44 l 163 107 l 660 107 l 660 893 l 204 893 l 204 956 z "},"オ":{"ha":1389,"x_min":149,"x_max":1268,"o":"m 149 872 l 872 872 l 872 1101 l 938 1101 l 938 872 l 1268 872 l 1268 810 l 938 810 l 938 140 q 909 17 938 46 q 788 -11 881 -11 q 550 4 685 -11 l 556 65 q 782 53 671 53 q 856 68 840 53 q 872 142 872 83 l 872 731 q 548 418 729 567 q 183 165 367 269 l 153 219 q 529 482 343 326 q 858 810 715 638 l 149 810 l 149 872 z "},"カ":{"ha":1389,"x_min":176,"x_max":1176,"o":"m 563 1111 l 628 1111 q 624 882 628 989 l 1176 882 l 1176 836 q 1155 288 1176 468 q 1090 49 1133 108 q 957 -10 1046 -10 q 703 6 836 -10 l 708 69 q 943 56 844 56 q 1018 78 992 56 q 1067 176 1044 100 q 1099 401 1090 251 q 1107 803 1107 551 l 1107 819 l 619 819 q 508 306 597 493 q 218 -35 418 118 l 176 14 q 371 199 299 107 q 491 444 443 292 q 554 819 539 596 l 185 819 l 185 882 l 557 882 q 563 1111 563 975 z "},"キ":{"ha":1389,"x_min":133,"x_max":1256,"o":"m 615 1083 l 685 1089 l 703 846 l 1199 863 l 1200 800 l 708 783 l 738 389 l 1254 406 l 1256 343 l 743 326 l 774 -83 l 704 -89 l 672 324 l 135 307 l 133 369 l 668 386 l 639 781 l 190 765 l 189 828 l 633 843 l 615 1083 z "},"ク":{"ha":1389,"x_min":171,"x_max":1153,"o":"m 1083 875 l 494 875 q 217 444 417 626 l 171 488 q 469 1088 429 725 l 536 1082 q 511 938 528 1010 l 1153 938 l 1153 919 q 935 241 1153 467 q 244 -25 717 15 l 235 38 q 874 273 675 78 q 1083 875 1074 468 z "},"ケ":{"ha":1389,"x_min":93,"x_max":1289,"o":"m 1289 872 l 1289 810 l 919 810 q 788 224 918 424 q 371 -35 657 24 l 353 26 q 731 264 614 81 q 850 810 849 447 l 357 810 q 146 451 289 614 l 93 489 q 350 1089 313 738 l 415 1085 q 376 872 403 968 l 1289 872 z "},"コ":{"ha":1389,"x_min":213,"x_max":1171,"o":"m 213 956 l 1171 956 l 1171 44 l 213 44 l 213 107 l 1104 107 l 1104 893 l 213 893 l 213 956 z "},"介":{"ha":1389,"x_min":60,"x_max":1329,"o":"m 738 1126 q 1329 715 999 896 l 1300 658 q 694 1079 957 844 q 89 658 432 844 l 60 715 q 651 1126 390 896 l 738 1126 m 410 761 l 478 761 l 478 626 q 448 272 478 407 q 350 51 418 138 q 157 -103 282 -36 l 119 -47 q 288 80 229 11 q 378 280 346 149 q 410 626 410 411 l 410 761 m 928 -90 l 928 761 l 997 761 l 997 -90 l 928 -90 z "},"己":{"ha":1389,"x_min":208,"x_max":1274,"o":"m 208 1051 l 1153 1051 l 1153 456 l 1085 456 l 1085 563 l 306 563 l 306 117 q 320 6 306 22 q 424 -17 335 -11 q 682 -24 572 -24 q 958 -17 799 -24 q 1029 -13 1007 -14 q 1082 -5 1051 -12 q 1122 6 1113 3 q 1149 31 1132 10 q 1169 67 1165 53 q 1183 122 1174 81 q 1194 195 1192 164 q 1206 296 1197 226 l 1274 286 q 1260 173 1265 214 q 1246 88 1256 132 q 1229 24 1236 44 q 1203 -18 1222 4 q 1168 -48 1183 -40 q 1119 -64 1153 -56 q 1054 -74 1085 -72 q 969 -79 1024 -76 q 679 -86 807 -86 q 414 -79 528 -86 q 262 -44 288 -72 q 236 114 236 -15 l 236 624 l 1085 624 l 1085 990 l 208 990 l 208 1051 z "},"校":{"ha":1389,"x_min":32,"x_max":1350,"o":"m 474 868 l 474 808 l 322 808 q 413 590 338 774 q 499 383 489 406 l 444 351 q 394 478 442 358 q 318 667 346 597 l 318 -115 l 253 -115 l 253 653 q 75 201 189 408 l 32 257 q 238 808 176 518 l 58 808 l 58 868 l 253 868 l 253 1115 l 318 1115 l 318 868 l 474 868 m 879 1143 l 947 1143 l 947 971 l 1336 971 l 1336 911 l 472 911 l 472 971 l 879 971 l 879 1143 m 796 844 q 506 494 704 656 l 465 542 q 739 875 642 690 l 796 844 m 1019 829 l 1067 872 q 1346 538 1231 706 l 1296 499 q 1019 829 1178 669 m 1350 -46 l 1326 -104 q 907 129 1057 -8 q 471 -104 749 -8 l 444 -47 q 861 175 715 49 q 650 551 735 314 l 714 569 q 908 219 790 347 q 1117 571 1036 350 l 1178 551 q 954 174 1092 313 q 1350 -46 1093 47 z "},"紹":{"ha":1389,"x_min":67,"x_max":1300,"o":"m 688 -36 l 688 -108 l 622 -108 l 622 457 l 1261 457 l 1261 -108 l 1194 -108 l 1194 -36 l 688 -36 m 1138 624 q 1188 644 1171 624 q 1219 750 1206 664 q 1232 1004 1232 836 l 960 1004 q 844 710 940 844 q 610 513 749 576 l 578 567 q 787 744 700 624 q 893 1004 874 864 l 581 1004 l 581 1065 l 1300 1065 q 1285 740 1300 849 q 1241 598 1269 632 q 1156 564 1213 564 q 953 571 1061 564 l 953 631 q 1138 624 1054 624 m 1194 22 l 1194 399 l 688 399 l 688 22 l 1194 22 m 426 724 l 483 739 q 572 401 543 563 l 514 390 q 505 432 511 404 q 497 469 499 460 l 347 460 l 347 -115 l 282 -115 l 282 456 l 69 442 l 67 501 l 156 507 q 231 614 174 532 q 69 903 143 776 l 114 953 q 167 861 131 925 q 303 1125 233 978 l 363 1099 q 201 797 297 961 q 269 672 249 711 q 457 992 374 832 l 514 964 q 235 511 390 726 l 483 526 q 426 724 456 640 m 74 -24 q 140 368 125 164 l 201 363 q 132 -36 186 160 l 74 -24 m 422 368 l 481 378 q 526 17 511 207 l 467 11 q 422 368 456 167 z "},"自":{"ha":1389,"x_min":183,"x_max":1206,"o":"m 251 354 l 1138 354 l 1138 608 l 251 608 l 251 354 m 251 36 l 1138 36 l 1138 296 l 251 296 l 251 36 m 251 -24 l 251 -101 l 183 -101 l 183 971 l 592 971 q 669 1161 633 1050 l 738 1149 q 665 971 707 1053 l 1206 971 l 1206 -101 l 1138 -101 l 1138 -24 l 251 -24 m 1138 667 l 1138 911 l 251 911 l 251 667 l 1138 667 z "},"高":{"ha":1389,"x_min":90,"x_max":1299,"o":"m 447 103 l 942 103 l 942 275 l 447 275 l 447 103 m 363 638 l 1026 638 l 1026 801 l 363 801 l 363 638 m 363 581 l 294 581 l 294 858 l 1094 858 l 1094 581 l 363 581 m 383 333 l 1006 333 l 1006 46 l 447 46 l 447 -18 l 383 -18 l 383 333 m 1192 428 l 197 428 l 197 -92 l 129 -92 l 129 486 l 1260 486 l 1260 65 q 1238 -60 1260 -35 q 1126 -86 1215 -86 q 947 -79 1090 -86 l 946 -18 q 1114 -25 1081 -25 q 1181 -14 1169 -25 q 1192 61 1192 -3 l 1192 428 m 729 1013 l 1299 1013 l 1299 954 l 90 954 l 90 1013 l 660 1013 l 660 1143 l 729 1143 l 729 1013 z "}}}
